<svg width="1728" height="200" viewBox="0 0 1728 200" fill="none" xmlns="http://www.w3.org/2000/svg">
<path d="M0 77.284C20.688 78.5541 52.8396 84.8373 86.8295 45.8342C120.819 6.83113 132.703 13.9745 139.869 17.1672C160.574 30.3768 159.789 48.3409 192.509 52.1175C225.229 55.8942 215.169 24.4443 242.842 24.4443C270.515 24.4443 261.725 74.5434 288.128 78.4203C314.531 82.2972 317.071 50.8474 346.014 63.4474C374.958 76.0473 373.688 117.557 397.617 135.17C421.547 152.783 436.621 142.724 450.457 118.827C464.294 94.9307 480.67 52.1508 510.85 53.3874C541.03 54.624 541.063 125.11 569.973 126.38C598.883 127.65 601.423 88.6807 616.529 79.8574C631.636 71.0341 636.649 66.0543 666.862 79.8574C697.076 93.6606 707.135 92.4574 725.985 79.8574C744.835 67.2574 763.718 62.2776 782.602 79.8574C789.896 83.9416 804.454 110.284 804.454 110.284C804.454 110.284 832.767 156.092 857.299 138.178C881.83 120.264 874.879 47.9732 930.258 83.6341C948.172 95.1646 973.038 108.801 995.698 83.6341C1009.43 68.3605 1004.62 46.7031 1009.13 28.3546C1016.15 -0.388031 1068.79 -12.3195 1082.86 16.7573C1085.57 22.3721 1086.54 28.6888 1087.07 34.9053C1089.11 59.5704 1078.85 120.164 1117.79 120.164C1144.56 120.164 1146.96 83.4335 1150.51 64.4166C1153.21 49.9116 1164.64 40.186 1179.62 42.4921C1215.38 47.9732 1212.27 102.25 1256.15 96.3009C1279.38 93.1258 1334.16 47.2713 1337.97 101.882C1339.77 127.918 1322.29 147.636 1330.45 175.076C1335.63 192.589 1348.26 200.109 1365.64 199.474C1385.13 198.738 1392.68 185.136 1391.58 166.553C1389.51 132.129 1361.06 65.6532 1420.99 62.3445C1483.19 58.902 1460.36 195.028 1532.98 149.174C1548.53 139.348 1550.46 121.367 1562.26 108.934C1576.2 94.2956 1589.8 103.587 1602.07 114.716C1613.23 124.843 1624.29 135.103 1639.73 137.644C1654.97 140.15 1671.48 140.484 1685.65 147.169C1701.86 154.822 1709.75 173.371 1728 176.847V199.473L0 199.473V77.284Z" fill="white"/>
</svg>
