<svg width="1708" height="533" viewBox="0 0 1708 533" fill="none" xmlns="http://www.w3.org/2000/svg">
<path d="M757.514 72.5663C757.514 101.886 722.33 119.478 722.33 205.484V335.795C722.33 421.8 757.514 439.392 757.514 468.712C757.514 480.44 750.347 498.683 722.33 498.683H612.869C584.852 498.683 577.685 480.44 577.685 468.712C577.685 439.392 612.869 421.8 612.869 335.795V197.665C611.566 200.271 610.914 202.877 609.611 205.484L504.711 456.984C492.983 485.001 483.861 498.683 460.405 498.683H438.904C411.539 498.683 405.023 475.879 396.553 456.984L286.44 202.877V332.048C286.44 442.161 253.048 550.156 109.868 529.469C33.718 518.474 0 468.956 0 388.163C0 348.418 24.7591 313.886 57.3369 313.886C136.827 313.886 91.625 468.223 171.115 468.223C219.981 468.223 239.528 414.796 239.528 305.334V164.436C239.528 131.206 234.967 89.5067 216.072 89.5067C175.024 89.5067 198.48 217.863 128.764 217.863C97.489 217.863 74.6845 188.543 74.6845 153.359C74.6845 94.7192 156.129 42.5947 239.528 42.5947H286.44C341.171 42.5947 354.853 88.8551 371.794 127.297L484.513 382.707L593.974 121.433C613.521 73.8694 624.597 42.5947 663.69 42.5947H722.33C750.347 42.5947 757.514 60.8383 757.514 72.5663Z" fill="white"/>
<path d="M932.784 152.465C1011.62 152.465 1071.56 186.998 1071.56 240.425C1071.56 336.855 917.798 331.643 917.798 392.889C917.798 409.178 932.784 431.983 972.529 431.983C1027.91 431.983 1053.32 403.314 1067.66 403.314C1074.82 403.314 1077.43 409.178 1077.43 413.087C1077.43 446.317 1014.88 499.093 932.784 499.093C827.883 499.093 762.076 431.983 762.076 325.779C762.076 219.576 827.883 152.465 932.784 152.465ZM866.977 292.55C866.977 319.915 871.537 344.023 879.356 364.221C908.025 312.096 964.71 301.02 964.71 243.032C964.71 222.182 952.982 195.468 922.359 195.468C885.872 195.468 866.977 230.652 866.977 292.55Z" fill="white"/>
<path d="M1082.08 42.3511C1082.08 14.9858 1120.52 0 1153.09 0C1207.83 0 1229.33 31.2747 1229.33 97.7333V336.203C1229.33 422.208 1264.51 439.8 1264.51 469.12C1264.51 480.848 1257.34 499.091 1229.33 499.091H1125.08C1097.06 499.091 1089.89 480.848 1089.89 469.12C1089.89 439.8 1125.08 422.208 1125.08 336.203V173.314C1125.08 91.8693 1082.08 73.6257 1082.08 42.3511Z" fill="white"/>
<path d="M1457.12 424.815C1477.31 424.815 1496.86 411.784 1496.86 430.679C1496.86 458.045 1447.99 494.532 1403.04 494.532C1320.94 494.532 1311.17 427.422 1311.17 332.294V276.912C1311.17 208.499 1257.74 209.151 1257.74 179.831C1257.74 158.329 1294.23 138.131 1324.85 119.236C1350.91 102.947 1386.1 80.1426 1397.82 80.1426C1417.37 80.1426 1415.42 104.902 1415.42 122.494V158.329H1505.82C1518.2 158.329 1527.32 167.451 1527.32 179.831C1527.32 192.21 1518.2 201.332 1505.82 201.332H1415.42V310.793C1415.42 385.722 1417.37 424.815 1457.12 424.815Z" fill="white"/>
<path d="M1667.49 424.815C1687.69 424.815 1707.23 411.784 1707.23 430.679C1707.23 458.045 1658.37 494.532 1613.41 494.532C1531.31 494.532 1521.54 427.422 1521.54 332.294V276.912C1521.54 208.499 1468.11 209.151 1468.11 179.831C1468.11 158.329 1504.6 138.131 1535.22 119.236C1561.28 102.947 1596.47 80.1426 1608.2 80.1426C1627.74 80.1426 1625.79 104.902 1625.79 122.494V158.329H1667.49C1679.87 158.329 1688.99 167.451 1688.99 179.831C1688.99 192.21 1679.87 201.332 1667.49 201.332H1625.79V310.793C1625.79 385.722 1627.74 424.815 1667.49 424.815Z" fill="white"/>
</svg>
