<svg width="440" height="106" viewBox="0 0 440 106" fill="none" xmlns="http://www.w3.org/2000/svg">
<path d="M12.2493 42.2732C22.2453 51.5792 26.4383 64.2467 26.4383 64.2467C26.4383 64.2467 38.805 82.6286 51.791 73.1457C64.7769 63.6628 61.0969 25.395 90.4126 44.2724C99.8955 50.3761 113.058 57.5945 125.054 44.2724C132.325 36.1871 129.777 24.7226 132.166 15.0097C135.881 -0.205413 163.746 -6.52144 171.194 8.87061C172.627 11.8429 173.14 15.1866 173.423 18.4773C174.503 31.534 169.071 63.6097 189.682 63.6097C203.854 63.6097 205.128 44.1662 207.003 34.0994C208.436 26.4211 214.487 21.2727 222.413 22.4935C241.343 25.395 239.698 54.1268 262.927 50.9777C275.223 49.2969 304.22 25.0234 306.237 53.9322C307.193 67.7143 297.94 78.1525 302.257 92.6776C304.787 101.231 310.675 105.281 318.797 105.593H320.885C320.885 105.593 320.886 105.593 320.886 105.593C331.201 105.204 335.199 98.0029 334.615 88.1661C333.518 69.9434 318.462 34.7541 350.184 33.0026C383.109 31.1803 371.025 103.24 409.47 78.9663C417.697 73.7649 418.723 64.2466 424.968 57.6652C430.126 52.2483 435.196 53.0214 439.999 55.9898V105.593H320.886C320.886 105.593 320.885 105.593 320.885 105.593C320.174 105.619 319.477 105.619 318.797 105.593L0 105.593V36.3079C4.08229 36.6628 8.1658 38.4716 12.2493 42.2732Z" fill="white"/>
</svg>
