<svg width="440" height="142" viewBox="0 0 440 142" fill="none" xmlns="http://www.w3.org/2000/svg">
<path d="M26.6676 62.8204C26.6676 62.8204 21.2551 52.7269 12.2493 42.2732C8.1658 38.4716 4.08229 36.6628 0 36.3079V141.911L439.999 141.911V55.9898C435.196 53.0214 430.126 52.2483 424.968 57.6652C418.723 64.2466 417.697 73.7649 409.47 78.9663C371.025 103.24 383.109 31.1803 350.184 33.0026C318.462 34.7541 333.518 69.9434 334.615 88.1661C335.199 98.0029 331.201 105.204 320.886 105.593C311.686 105.929 304.999 101.948 302.257 92.6776C297.94 78.1525 307.193 67.7143 306.237 53.9322C304.22 25.0234 275.223 49.2969 262.927 50.9777C239.698 54.1268 241.343 25.395 222.413 22.4935C214.487 21.2727 208.436 26.4211 207.003 34.0994C205.128 44.1662 203.854 63.6097 189.682 63.6097C169.071 63.6097 174.503 31.534 173.423 18.4773C173.14 15.1866 172.627 11.8429 171.194 8.87061C163.746 -6.52144 135.881 -0.205413 132.166 15.0097C129.777 24.7226 132.325 36.1871 125.054 44.2724C113.058 57.5945 99.8955 50.3761 90.4126 44.2724C61.0969 25.395 64.7769 63.6628 51.791 73.1457C38.805 82.6286 26.6676 62.8204 26.6676 62.8204Z" fill="white"/>
</svg>
