<svg width="835" height="151" viewBox="0 0 835 151" fill="none" xmlns="http://www.w3.org/2000/svg">
<path d="M25.4414 40.2541C48.1969 41.1865 48.2221 94.3332 70.02 95.2908C91.8179 96.2484 93.7331 66.8653 105.123 60.2125C116.514 53.5597 120.294 49.8049 143.075 60.2125C165.855 70.6201 173.44 69.7129 187.653 60.2125C201.866 50.7121 216.104 46.9574 230.342 60.2125C244.58 73.4677 250.552 91.5108 250.552 91.5108C250.552 91.5108 268.167 117.694 286.664 104.186C305.16 90.6792 299.919 36.1717 341.675 63.06C355.182 71.754 373.931 82.0356 391.016 63.06C401.374 51.5437 397.745 35.2141 401.147 21.3794C406.439 -0.292551 446.129 -9.28893 456.738 12.635C458.779 16.8686 459.51 21.6314 459.913 26.3186C461.45 44.9161 453.714 90.6036 483.072 90.6036C503.257 90.6036 505.071 62.9089 507.742 48.5702C509.784 37.6334 518.402 30.3002 529.692 32.039C556.656 36.1718 554.312 77.0965 587.399 72.6109C604.913 70.217 646.216 35.6425 649.089 76.8192C650.449 96.4499 637.27 111.318 643.419 132.007C647.022 144.189 655.409 149.959 666.975 150.403L669.954 150.403C684.646 149.849 690.341 139.592 689.509 125.581C687.947 99.6251 666.502 49.5026 711.685 47.0078C758.582 44.4122 741.371 147.051 796.13 112.477C807.848 105.068 809.31 91.5108 818.205 82.1365C823.586 76.4846 828.901 75.5637 834.048 77.1373V150.403H669.954C668.939 150.44 667.946 150.44 666.975 150.403L0 150.403V55.1834C6.85332 46.3041 15.0654 39.829 25.4414 40.2541Z" fill="white"/>
</svg>
