<svg width="835" height="170" viewBox="0 0 835 170" fill="none" xmlns="http://www.w3.org/2000/svg">
<path d="M70.0203 95.2908C48.2224 94.3332 48.1972 41.1865 25.4417 40.2541C15.0657 39.829 6.85365 46.3041 0.000333786 55.1834L0 169.674L834.048 169.674L834.049 77.1373C828.901 75.5637 823.586 76.4846 818.206 82.1365C809.31 91.5108 807.848 105.068 796.13 112.477C741.371 147.051 758.583 44.4122 711.686 47.0078C666.502 49.5026 687.947 99.6251 689.51 125.581C690.341 139.592 684.646 149.849 669.955 150.403C656.851 150.882 647.325 145.212 643.419 132.007C637.27 111.318 650.45 96.4499 649.089 76.8192C646.216 35.6425 604.914 70.217 587.4 72.6109C554.312 77.0965 556.656 36.1718 529.692 32.039C518.402 30.3002 509.784 37.6334 507.743 48.5702C505.072 62.9089 503.257 90.6036 483.072 90.6036C453.714 90.6036 461.451 44.9161 459.913 26.3186C459.51 21.6314 458.779 16.8686 456.738 12.635C446.129 -9.28893 406.439 -0.292551 401.147 21.3794C397.745 35.2141 401.374 51.5437 391.017 63.06C373.931 82.0356 355.182 71.754 341.675 63.06C299.919 36.1717 305.161 90.6792 286.664 104.186C268.167 117.694 250.552 91.5108 250.552 91.5108C250.552 91.5108 244.58 73.4677 230.342 60.2125C216.104 46.9574 201.866 50.7121 187.653 60.2125C173.441 69.7129 165.855 70.6201 143.075 60.2125C120.294 49.8049 116.514 53.5597 105.124 60.2125C93.7334 66.8653 91.8182 96.2484 70.0203 95.2908Z" fill="white"/>
</svg>
